<?xml version="1.0" encoding="UTF-8"?>
<svg width="64px" height="64px" viewBox="0 0 64 64" version="1.1" xmlns="http://www.w3.org/2000/svg" xmlns:xlink="http://www.w3.org/1999/xlink">
    <title>Logo</title>
    <defs>
        <linearGradient x1="19.1746598%" y1="12.7331843%" x2="80.2294996%" y2="82.4018713%" id="linearGradient-1">
            <stop stop-color="#C82D45" offset="0%"></stop>
            <stop stop-color="#7E0719" offset="100%"></stop>
        </linearGradient>
    </defs>
    <g id="Page-1" stroke="none" stroke-width="1" fill="none" fill-rule="evenodd">
        <g id="Desktop-HD" transform="translate(-16.000000, -16.000000)">
            <g id="Logo" transform="translate(16.000000, 16.000000)">
                <g id="e3-Recovered" fill="url(#linearGradient-1)">
                    <path d="M48.2919068,58.4652265 C46.2655187,58.273123 44.7307703,59.0505116 43.6850604,60.7973926 C42.6406512,62.5444036 41.1839408,63.013412 39.3162301,62.204418 C37.4485193,61.3955539 35.7472898,61.6603629 34.2151427,62.998975 C32.6816949,64.337587 31.1508484,64.3336851 29.6252045,62.9871392 C28.0982599,61.6405933 26.3996316,61.36694 24.5267183,62.1663094 C22.6551057,62.9654186 21.2009966,62.4887365 20.1656918,60.736653 C19.1290863,58.9843094 17.5982398,58.1989869 15.5705511,58.3804252 C13.544163,58.5621237 12.3085605,57.6597442 11.8650442,55.6730264 C11.4215279,53.6864387 10.2067356,52.4663144 8.22326837,52.0125234 C6.23850055,51.5588624 5.34236357,50.3187083 5.53485744,48.2921911 C5.72605067,46.2659341 4.94957204,44.7302761 3.20282028,43.6856072 C1.45476788,42.6408083 0.986539564,41.1846189 1.79553405,39.3167791 C2.60452854,37.4489392 2.33919915,35.7481007 1.00084654,34.2147838 C-0.337506074,32.6813369 -0.333604171,31.1513366 1.01255225,29.6249261 C2.35870867,28.0983725 2.63314249,26.3991468 1.83325244,24.5271059 C1.03466303,22.655143 1.51069516,21.2012948 3.26264945,20.1655678 C5.01590438,19.1298395 5.80148745,17.5983578 5.61939866,15.5709562 C5.43730987,13.5436457 6.33995002,12.3081869 8.32601848,11.8646578 C10.3133876,11.4211418 11.5333825,10.2072735 11.9873038,8.22298792 C12.4412252,6.2388064 13.6807296,5.34253981 15.7071177,5.53477345 C17.7335058,5.72687703 19.2695548,4.94948835 20.3139641,3.20260742 C21.3583734,1.4557265 22.8150837,0.986587973 24.6827945,1.79558204 C26.5505052,2.60444605 28.2517348,2.339507 29.7851825,1.00102501 C31.3186303,-0.33758705 32.8481761,-0.333685149 34.3751207,1.01286077 C35.9020652,2.35927663 37.6006935,2.63305999 39.4723062,1.83369061 C41.3452195,1.03458135 42.7980279,1.51113349 43.8346334,3.26347707 C44.8699382,5.01556054 46.4020853,5.8011432 48.4284734,5.6194447 C50.4561622,5.43787625 51.6917647,6.34038588 52.135281,8.32681749 C52.5787972,10.3134962 53.792289,11.5336336 55.7770568,11.9874636 C57.760524,12.4412287 58.656661,13.6812137 58.4654677,15.7076528 C58.2729739,17.7340269 59.0507531,19.2697148 60.7975049,20.3143343 C62.5442566,21.3590357 63.012485,22.815342 62.2047911,24.683338 C61.3957966,26.5511648 61.6598254,28.2518993 62.998178,29.7852031 C64.3378312,31.3185981 64.3339293,32.8485984 62.9864723,34.375152 C61.6403159,35.9015755 61.3671827,37.6008532 62.1657721,39.4728551 C62.9656621,41.344857 62.4883294,42.7987052 60.7363751,43.8343997 C58.9844208,44.8700942 58.1988377,46.4015902 58.3809265,48.4288877 C58.5617147,50.4563153 57.6590745,51.6916571 55.6730061,52.1353032 C53.6869376,52.5788192 52.4656421,53.7925704 52.0130214,55.7769471 C51.5591,57.7611936 50.318295,58.6573301 48.2919068,58.4652265 Z" id="Path"></path>
                </g>
                <circle id="Oval" stroke="#FFFFFF" stroke-width="1.28" stroke-linejoin="round" fill-rule="nonzero" cx="32" cy="32" r="24.96"></circle>
                <circle id="Oval-Copy" stroke-opacity="0.5" stroke="#FFFFFF" stroke-width="0.64" fill-rule="nonzero" cx="32" cy="32" r="22.72"></circle>
                <path d="M25.558125,51.92875 C25.8872917,51.92875 26.1425,51.8391667 26.32375,51.66 C26.505,51.4808333 26.595625,51.22875 26.595625,50.90375 C26.595625,50.5745833 26.508125,50.3214583 26.333125,50.144375 C26.158125,49.9672917 25.8997917,49.87875 25.558125,49.87875 C25.2164583,49.87875 24.9591667,49.9683333 24.78625,50.1475 C24.6133333,50.3266667 24.526875,50.57875 24.526875,50.90375 C24.526875,51.2245833 24.614375,51.475625 24.789375,51.656875 C24.964375,51.838125 25.220625,51.92875 25.558125,51.92875 Z M29.826875,51.885 C30.501875,51.885 31.0164583,51.54125 31.370625,50.85375 L31.370625,50.85375 L31.426875,50.85375 L31.708125,51.76 L32.945625,51.76 L32.945625,42.035 L31.283125,42.035 L31.283125,44.36 C31.283125,44.6141667 31.308125,45.0579167 31.358125,45.69125 L31.358125,45.69125 L31.258125,45.69125 C31.0622917,45.3204167 30.84875,45.056875 30.6175,44.900625 C30.38625,44.744375 30.1122917,44.66625 29.795625,44.66625 C29.158125,44.66625 28.658125,44.9870833 28.295625,45.62875 C27.933125,46.2704167 27.751875,47.1579167 27.751875,48.29125 C27.751875,49.4204167 27.9372917,50.3016667 28.308125,50.935 C28.6789583,51.5683333 29.1852083,51.885 29.826875,51.885 Z M30.364375,50.47875 C30.0477083,50.47875 29.8185417,50.2985417 29.676875,49.938125 C29.5352083,49.5777083 29.464375,49.0370833 29.464375,48.31625 C29.464375,47.5954167 29.5341667,47.0464583 29.67375,46.669375 C29.8133333,46.2922917 30.0372917,46.10375 30.345625,46.10375 C30.6747917,46.10375 30.91125,46.2683333 31.055,46.5975 C31.19875,46.9266667 31.270625,47.4954167 31.270625,48.30375 L31.270625,48.30375 L31.270625,48.5225 C31.258125,49.2641667 31.1810417,49.775625 31.039375,50.056875 C30.8977083,50.338125 30.6727083,50.47875 30.364375,50.47875 Z M36.914375,51.885 C37.6602083,51.885 38.2997917,51.7245833 38.833125,51.40375 L38.833125,51.40375 L38.833125,50.035 C38.2664583,50.3725 37.7122917,50.54125 37.170625,50.54125 C36.745625,50.54125 36.4122917,50.3902083 36.170625,50.088125 C35.9289583,49.7860417 35.801875,49.3245833 35.789375,48.70375 L35.789375,48.70375 L39.133125,48.70375 L39.133125,47.81625 C39.133125,46.8204167 38.914375,46.0464583 38.476875,45.494375 C38.039375,44.9422917 37.4414583,44.66625 36.683125,44.66625 C35.870625,44.66625 35.2372917,44.9891667 34.783125,45.635 C34.3289583,46.2808333 34.101875,47.17875 34.101875,48.32875 C34.101875,49.4620833 34.3529167,50.338125 34.855,50.956875 C35.3570833,51.575625 36.0435417,51.885 36.914375,51.885 Z M37.501875,47.4975 L35.814375,47.4975 C35.839375,46.9683333 35.9289583,46.5777083 36.083125,46.325625 C36.2372917,46.0735417 36.433125,45.9475 36.670625,45.9475 C36.9247917,45.9475 37.1247917,46.07875 37.270625,46.34125 C37.4164583,46.60375 37.4935417,46.9891667 37.501875,47.4975 L37.501875,47.4975 Z" id=".de" fill-opacity="0.474920743" fill="#FFFFFF" fill-rule="nonzero"></path>
                <path d="M7.36162924,40.4954732 C7.66029591,40.4954732 8.01065489,40.4552681 8.41270617,40.3748578 C8.81475745,40.2944476 9.24552668,40.1278835 9.70501386,39.8751655 C10.3712703,39.5305501 11.2959882,38.8700373 12.4791677,37.893627 C13.6623472,36.9172168 14.9546549,35.5674732 16.3560908,33.8443963 C16.7466549,34.3728065 17.0740395,34.912704 17.3382446,35.4640886 C17.6024498,36.0154732 17.8207062,36.5438835 17.9930139,37.0493193 C18.1653216,37.5547552 18.2974241,38.0142424 18.3893216,38.4277809 C18.481219,38.8413193 18.5501421,39.1629604 18.5960908,39.392704 C18.5960908,39.5764988 18.6305523,39.714345 18.6994754,39.8062424 C18.6994754,39.8521911 18.7224498,39.8981399 18.7683985,39.9440886 L18.7683985,39.9440886 L18.80286,39.9785501 C18.9636805,40.0934219 19.1589626,40.1968065 19.3887062,40.288704 C19.572501,40.357627 19.7850139,40.4150629 20.0262446,40.4610117 C20.2674754,40.5069604 20.5374241,40.5069604 20.8360908,40.4610117 C20.8820395,40.4380373 20.9394754,40.4265501 21.0083985,40.4265501 C21.169219,40.3806014 21.3128087,40.3001911 21.4391677,40.1853193 C21.5655267,40.0704476 21.6746549,39.9670629 21.7665523,39.8751655 C21.812501,39.8292168 21.812501,39.7488065 21.7665523,39.6339347 L21.7665523,39.6339347 L21.6976292,39.4960886 C21.5368087,39.3122937 21.4391677,39.0480886 21.4047062,38.7034732 C21.3702446,38.3588578 21.3759882,38.0257296 21.4219369,37.7040886 C21.5827574,36.6702424 21.7895267,35.5157809 22.0422446,34.240704 C22.2949626,32.965627 22.5706549,31.776704 22.8693216,30.6739347 C23.2369113,29.410345 23.5700395,28.2271655 23.8687062,27.1243963 C24.1214241,26.1824476 24.3741421,25.2864476 24.62686,24.4363963 C24.879578,23.586345 25.0518857,23.011986 25.1437831,22.7133193 C25.1897318,22.5295245 25.1667574,22.3572168 25.07486,22.1963963 C25.0289113,22.1274732 24.9829626,22.0700373 24.9370139,22.0240886 C24.7302446,21.8632681 24.4488087,21.7081911 24.0927062,21.5588578 C23.7366036,21.4095245 23.3288087,21.3348578 22.8693216,21.3348578 C22.7314754,21.3348578 22.6625523,21.3922937 22.6625523,21.5071655 C22.5706549,21.6909604 22.3523985,22.0815245 22.0077831,22.6788578 C21.6631677,23.2761911 21.2209113,23.9941399 20.6810139,24.832704 C20.1411164,25.6712681 19.503578,26.6017296 18.7683985,27.6240886 C18.033219,28.6464476 17.2406036,29.6630629 16.3905523,30.6739347 C15.6323985,29.6400886 14.8857318,28.9049091 14.1505523,28.4683963 C13.4153728,28.0318835 12.8065523,27.9055245 12.3240908,28.0893193 C11.6808087,28.3190629 11.1294241,28.640704 10.6699369,29.0542424 C10.2104498,29.4677809 9.87732155,29.8238835 9.67055232,30.1225501 L9.67055232,30.1225501 L9.60162924,30.2603963 C9.55568053,30.3752681 9.59014206,30.4441911 9.70501386,30.4671655 C9.81988565,30.5360886 9.94624463,30.5418322 10.0840908,30.4843963 C10.2219369,30.4269604 10.3368087,30.3752681 10.4287062,30.3293193 C11.3936292,30.4441911 12.2436805,30.6796783 12.97886,31.0357809 C13.7140395,31.3918835 14.3688087,31.8111655 14.9431677,32.293627 C14.1620395,33.1436783 13.3407062,33.9362937 12.4791677,34.6714732 C11.6176292,35.4066527 10.73886,36.0384476 9.84286001,36.5668578 C8.94686001,37.0952681 8.02788565,37.4973193 7.08593694,37.7730117 C6.14398822,38.048704 5.21352668,38.1291142 4.29455232,38.0142424 C4.38644976,37.3939347 4.55875745,36.8080886 4.8114754,36.256704 C5.04121899,35.7972168 5.36286001,35.331986 5.77639847,34.8610117 C6.18993694,34.3900373 6.76429591,34.0281911 7.4994754,33.7754732 C7.75219335,33.6835758 8.0049113,33.6146527 8.25762924,33.568704 C8.48737283,33.5227552 8.7286036,33.5112681 8.98132155,33.5342424 C9.2340395,33.5572168 9.48675745,33.637627 9.7394754,33.7754732 C9.78542412,33.8214219 9.84286001,33.8443963 9.91178309,33.8443963 C10.0726036,33.8443963 10.1874754,33.7984476 10.2563985,33.7065501 C10.3023472,33.6606014 10.3310651,33.6146527 10.3425523,33.568704 C10.3540395,33.5227552 10.3597831,33.4768065 10.3597831,33.4308578 C10.3597831,33.3849091 10.3482959,33.3389604 10.3253216,33.2930117 C10.1185523,33.0173193 9.79116771,32.6382424 9.34316771,32.1557809 C8.89516771,31.6733193 8.31506514,31.3057296 7.60286001,31.0530117 C7.48798822,31.0070629 7.33865489,30.9840886 7.15486001,30.9840886 C7.06296258,30.9840886 6.98255232,30.9955758 6.91362924,31.0185501 C6.63793694,31.1104476 6.24162924,31.2712681 5.72470617,31.5010117 C5.20778309,31.7307552 4.70234719,32.0753706 4.20839847,32.5348578 C3.71444976,32.994345 3.28368053,33.5859347 2.91609078,34.309627 C2.54850104,35.0333193 2.37619335,35.9235758 2.39916771,36.9803963 C2.39916771,37.0722937 2.42214206,37.1756783 2.46809078,37.2905501 C2.5140395,37.4054219 2.55424463,37.5260373 2.58870617,37.6523963 C2.62316771,37.7787552 2.68634719,37.8993706 2.77824463,38.0142424 C3.00798822,38.3358835 3.40429591,38.7379347 3.96716771,39.2203963 C4.5300395,39.7028578 5.33988565,40.0934219 6.39670617,40.3920886 C6.69537283,40.4610117 7.01701386,40.4954732 7.36162924,40.4954732 Z M19.0096292,35.9810117 C18.80286,35.2917809 18.5673728,34.6484988 18.3031677,34.0511655 C18.0389626,33.4538322 17.7575267,32.8909604 17.45886,32.3625501 C18.2170139,31.3516783 18.9694241,30.2374219 19.7160908,29.0197809 C20.4627574,27.8021399 21.2036805,26.469627 21.93886,25.0222424 C21.7550651,25.6884988 21.5368087,26.4753706 21.2840908,27.3828578 C21.0313728,28.290345 20.7671677,29.2437809 20.4914754,30.2431655 C20.2157831,31.2425501 19.951578,32.2361911 19.69886,33.2240886 C19.4461421,34.211986 19.2163985,35.1309604 19.0096292,35.9810117 Z M26.8323985,27.8825501 C26.993219,27.9055245 27.1138344,27.8595758 27.1942446,27.744704 C27.2746549,27.6298322 27.3263472,27.5379347 27.3493216,27.4690117 C27.3722959,27.4460373 27.3837831,27.4115758 27.3837831,27.365627 C27.5216292,26.8831655 27.7283985,26.4351655 28.0040908,26.021627 C28.0500395,25.952704 28.0730139,25.8608065 28.0730139,25.7459347 L28.0730139,25.7459347 L28.0730139,25.6080886 C28.0270651,25.2175245 27.8777318,24.8786527 27.6250139,24.5914732 C27.3722959,24.3042937 27.1080908,24.034345 26.8323985,23.781627 C26.7634754,23.7356783 26.671578,23.7356783 26.5567062,23.781627 C26.5107574,23.8046014 26.4648087,23.8390629 26.41886,23.8850117 C26.2350651,24.1377296 26.0570139,24.4019347 25.8847062,24.677627 C25.7123985,24.9533193 25.5688087,25.2290117 25.4539369,25.504704 C25.4079882,25.5506527 25.3792703,25.6138322 25.3677831,25.6942424 C25.3562959,25.7746527 25.3390651,25.8493193 25.3160908,25.9182424 C25.2701421,26.0331142 25.2471677,26.1824476 25.2471677,26.3662424 C25.2471677,26.5500373 25.2816292,26.7338322 25.3505523,26.917627 C25.4424498,27.1014219 25.5975267,27.2852168 25.8157831,27.4690117 C26.0340395,27.6528065 26.3729113,27.7906527 26.8323985,27.8825501 Z M26.0397831,38.944704 C26.4533216,38.6690117 26.8553728,38.3243963 27.2459369,37.9108578 C27.567578,37.5432681 27.8834754,37.0665501 28.1936292,36.480704 C28.5037831,35.8948578 28.7277831,35.1769091 28.8656292,34.3268578 C28.8426549,34.211986 28.7967062,34.0971142 28.7277831,33.9822424 C28.6129113,33.7295245 28.3946549,33.5112681 28.0730139,33.3274732 C28.0270651,34.0396783 27.9007062,34.6944476 27.6939369,35.2917809 C27.5101421,35.8201911 27.2459369,36.3486014 26.9013216,36.8770117 C26.5567062,37.4054219 26.0857318,37.795986 25.4883985,38.048704 C25.5343472,37.3135245 25.6032703,36.5094219 25.6951677,35.6363963 C25.7870651,34.9012168 25.9191677,34.0511655 26.0914754,33.0862424 C26.2637831,32.1213193 26.5107574,31.0989604 26.8323985,30.0191655 L26.8323985,30.0191655 L26.8323985,29.9502424 C26.8783472,29.8123963 26.8783472,29.7032681 26.8323985,29.6228578 C26.7864498,29.5424476 26.740501,29.4907552 26.6945523,29.4677809 C26.41886,29.2150629 26.1029626,29.0140373 25.74686,28.864704 C25.3907574,28.7153706 25.1093216,28.6062424 24.9025523,28.5373193 C24.879578,28.5373193 24.8566036,28.5258322 24.8336292,28.5028578 L24.8336292,28.5028578 L24.6613216,28.5028578 C24.5464498,28.5028578 24.4775267,28.5373193 24.4545523,28.6062424 C24.4086036,28.7211142 24.4086036,28.8072681 24.4545523,28.864704 C24.500501,28.9221399 24.500501,29.0427552 24.4545523,29.2265501 C24.3396805,29.6400886 24.2018344,30.2029604 24.0410139,30.9151655 C23.8801933,31.6273706 23.7251164,32.3740373 23.5757831,33.1551655 C23.4264498,33.9362937 23.311578,34.6829604 23.2311677,35.3951655 C23.1507574,36.1073706 23.1450139,36.6702424 23.2139369,37.0837809 C23.28286,37.5202937 23.5815267,37.893627 24.1099369,38.2037809 C24.6383472,38.5139347 25.2816292,38.7609091 26.0397831,38.944704 Z M30.45086,38.6000886 C30.8643985,38.3933193 31.2664498,38.0946527 31.6570139,37.7040886 C31.9786549,37.3824476 32.2945523,36.9459347 32.6047062,36.3945501 C32.91486,35.8431655 33.13886,35.1424476 33.2767062,34.2923963 C33.2537318,34.1775245 33.2077831,34.0626527 33.13886,33.9477809 C33.0929113,33.8329091 33.0182446,33.7180373 32.91486,33.6031655 C32.8114754,33.4882937 32.6678857,33.3734219 32.4840908,33.2585501 C32.4381421,33.8788578 32.3117831,34.4876783 32.1050139,35.0850117 C31.921219,35.5904476 31.6627574,36.0958835 31.3296292,36.6013193 C30.996501,37.1067552 30.5312703,37.4858322 29.9339369,37.7385501 C29.9339369,37.1641911 29.9798857,36.5438835 30.0717831,35.877627 C30.1177318,35.3032681 30.2038857,34.6312681 30.3302446,33.861627 C30.4566036,33.091986 30.6346549,32.2476783 30.8643985,31.328704 C31.0481933,30.6624476 31.2377318,29.955986 31.4330139,29.2093193 C31.6282959,28.4626527 31.8063472,27.7676783 31.9671677,27.1243963 C32.817219,27.0095245 33.6328087,26.8889091 34.4139369,26.7625501 C35.1950651,26.6361911 35.9130139,26.5615245 36.5677831,26.5385501 C37.2225523,26.5155758 37.7969113,26.5672681 38.29086,26.693627 C38.7848087,26.819986 39.1811164,27.0669604 39.4797831,27.4345501 C39.5257318,27.4804988 39.5142446,27.5609091 39.4453216,27.6757809 C39.4223472,27.7217296 39.41086,27.7561911 39.41086,27.7791655 C39.41086,27.8480886 39.4223472,27.9055245 39.4453216,27.9514732 C39.4912703,28.0203963 39.6061421,28.0318835 39.7899369,27.9859347 C39.8129113,27.9629604 39.8358857,27.9514732 39.85886,27.9514732 C39.9277831,27.9284988 40.0254241,27.8710629 40.1517831,27.7791655 C40.2781421,27.6872681 40.404501,27.5666527 40.53086,27.4173193 C40.657219,27.267986 40.7606036,27.0841911 40.8410139,26.8659347 C40.9214241,26.6476783 40.9386549,26.400704 40.8927062,26.1250117 C40.7778344,25.4587552 40.3585523,24.9705501 39.63486,24.6603963 C38.9111677,24.3502424 37.8486036,24.3789604 36.4471677,24.7465501 C36.079578,24.8384476 35.5281933,24.9648065 34.7930139,25.125627 C34.0578344,25.2864476 33.2537318,25.4587552 32.3807062,25.6425501 C32.4266549,25.5276783 32.4553728,25.4242937 32.46686,25.3323963 C32.4783472,25.2404988 32.495578,25.1715758 32.5185523,25.125627 C32.5415267,25.0107552 32.5300395,24.8958835 32.4840908,24.7810117 C32.4611164,24.7350629 32.4266549,24.6891142 32.3807062,24.6431655 C32.0820395,24.3904476 31.7489113,24.1836783 31.3813216,24.0228578 C31.0137318,23.8620373 30.7265523,23.7471655 30.5197831,23.6782424 C30.4968087,23.6782424 30.4738344,23.6667552 30.45086,23.6437809 L30.45086,23.6437809 L30.2785523,23.6437809 C30.1636805,23.6208065 30.0947574,23.6552681 30.0717831,23.7471655 C30.0258344,23.8850117 30.0258344,23.9769091 30.0717831,24.0228578 C30.1177318,24.0688065 30.1062446,24.2066527 30.0373216,24.4363963 C29.9913728,24.6201911 29.9339369,24.8556783 29.8650139,25.1428578 C29.7960908,25.4300373 29.7156805,25.7459347 29.6237831,26.0905501 C28.5899369,26.2054219 27.6422446,26.2571142 26.7807062,26.245627 C25.9191677,26.2341399 25.2931164,26.0790629 24.9025523,25.7803963 C24.8336292,25.7114732 24.7876805,25.6253193 24.7647062,25.5219347 C24.7417318,25.4185501 24.7302446,25.3209091 24.7302446,25.2290117 C24.753219,25.0681911 24.7072703,24.9877809 24.5923985,24.9877809 C24.5464498,25.0107552 24.5234754,25.0222424 24.5234754,25.0222424 C24.5234754,25.0681911 24.500501,25.1715758 24.4545523,25.3323963 C24.4086036,25.4932168 24.3856292,25.6884988 24.3856292,25.9182424 C24.3856292,26.147986 24.431578,26.371986 24.5234754,26.5902424 C24.6153728,26.8084988 24.7991677,26.9865501 25.07486,27.1243963 C25.2586549,27.2162937 25.5343472,27.296704 25.9019369,27.365627 C26.223578,27.4115758 26.6486036,27.4517809 27.1770139,27.4862424 C27.7054241,27.520704 28.4061421,27.5034732 29.2791677,27.4345501 C29.1413216,27.9859347 29.0034754,28.5430629 28.8656292,29.1059347 C28.7277831,29.6688065 28.6014241,30.1914732 28.4865523,30.6739347 C28.3716805,31.1793706 28.2510651,31.7192681 28.1247062,32.293627 C27.9983472,32.867986 27.8949626,33.4308578 27.8145523,33.9822424 C27.7341421,34.533627 27.6767062,35.0505501 27.6422446,35.5330117 C27.6077831,36.0154732 27.6135267,36.4175245 27.6594754,36.7391655 C27.7283985,37.1986527 28.0213216,37.5777296 28.5382446,37.8763963 C29.0551677,38.1750629 29.6927062,38.4162937 30.45086,38.6000886 Z M33.7247062,38.7379347 C33.8166036,38.7379347 33.8625523,38.6804988 33.8625523,38.565627 C33.8855267,38.496704 33.9659369,38.1865501 34.1037831,37.6351655 C34.2416292,37.0837809 34.4483985,36.4232681 34.7240908,35.653627 C34.9997831,34.883986 35.3386549,34.0798835 35.7407062,33.2413193 C36.1427574,32.4027552 36.6194754,31.6618322 37.17086,31.0185501 C36.9181421,31.9604988 36.6998857,32.9541399 36.5160908,33.9994732 C36.3322959,35.0448065 36.3208087,35.9350629 36.4816292,36.6702424 C36.5735267,37.1297296 36.8721933,37.5088065 37.3776292,37.8074732 C37.8830651,38.1061399 38.51486,38.3473706 39.2730139,38.5311655 C39.6865523,38.3243963 40.0886036,38.0257296 40.4791677,37.6351655 C40.8008087,37.3135245 41.1167062,36.8770117 41.42686,36.325627 C41.7370139,35.7742424 41.9610139,35.0735245 42.09886,34.2234732 C42.0758857,34.1086014 42.0299369,33.9937296 41.9610139,33.8788578 C41.9150651,33.763986 41.8403985,33.6491142 41.7370139,33.5342424 C41.6336292,33.4193706 41.4900395,33.3044988 41.3062446,33.189627 C41.2602959,33.8099347 41.1339369,34.4187552 40.9271677,35.0160886 C40.7433728,35.5215245 40.4849113,36.0269604 40.1517831,36.5323963 C39.8186549,37.0378322 39.3534241,37.4169091 38.7560908,37.669627 C38.6871677,37.0722937 38.6986549,36.3715758 38.7905523,35.5674732 C38.8594754,34.9012168 38.991578,34.0798835 39.18686,33.1034732 C39.3821421,32.1270629 39.7095267,31.0300373 40.1690139,29.8123963 L40.1690139,29.8123963 L40.1690139,29.7779347 L40.2034754,29.7434732 C40.2494241,29.5826527 40.2436805,29.4677809 40.1862446,29.3988578 C40.1288087,29.3299347 40.0886036,29.283986 40.0656292,29.2610117 C39.8129113,29.0542424 39.5429626,28.8819347 39.2557831,28.7440886 C38.9686036,28.6062424 38.7216292,28.4913706 38.51486,28.3994732 C38.4459369,28.3764988 38.3770139,28.3650117 38.3080908,28.3650117 C38.1702446,28.3650117 38.0553728,28.4109604 37.9634754,28.5028578 C37.9175267,28.5717809 37.8600908,28.640704 37.7911677,28.709627 C37.7681933,28.7326014 37.7567062,28.7440886 37.7567062,28.7440886 C37.4350651,29.1116783 36.9870651,29.6745501 36.4127062,30.432704 C35.8383472,31.1908578 35.2869626,32.1213193 34.7585523,33.2240886 C34.9423472,32.5118835 35.1433728,31.7709604 35.3616292,31.0013193 C35.5798857,30.2316783 35.7866549,29.507986 35.9819369,28.8302424 C36.177219,28.1524988 36.3495267,27.5551655 36.49886,27.0382424 C36.6481933,26.5213193 36.7573216,26.147986 36.8262446,25.9182424 C36.849219,25.7803963 36.8377318,25.6540373 36.7917831,25.5391655 C36.7688087,25.4932168 36.7343472,25.4587552 36.6883985,25.4357809 C36.3897318,25.1830629 36.0566036,24.9762937 35.6890139,24.8154732 C35.3214241,24.6546527 35.0342446,24.5397809 34.8274754,24.4708578 C34.804501,24.4478835 34.7815267,24.4363963 34.7585523,24.4363963 C34.735578,24.4363963 34.7126036,24.4306527 34.6896292,24.4191655 C34.6666549,24.4076783 34.6321933,24.4019347 34.5862446,24.4019347 C34.4713728,24.4019347 34.4024498,24.4478835 34.3794754,24.5397809 C34.3335267,24.6546527 34.3335267,24.7408065 34.3794754,24.7982424 C34.4254241,24.8556783 34.4139369,24.9992681 34.3450139,25.2290117 C34.161219,25.826345 33.9199882,26.6878835 33.6213216,27.813627 C33.3226549,28.9393706 33.0297318,30.1340373 32.7425523,31.397627 C32.4553728,32.6612168 32.2198857,33.890345 32.0360908,35.0850117 C31.8522959,36.2796783 31.8063472,37.2560886 31.8982446,38.0142424 L31.8982446,38.0142424 L31.8982446,38.0831655 C31.8982446,38.1520886 31.9327062,38.1980373 32.0016292,38.2210117 C32.3462446,38.4048065 32.6793728,38.5254219 33.0010139,38.5828578 C33.3226549,38.6402937 33.5638857,38.691986 33.7247062,38.7379347 Z M44.4077831,27.8825501 C44.5686036,27.9055245 44.689219,27.8595758 44.7696292,27.744704 C44.8500395,27.6298322 44.9017318,27.5379347 44.9247062,27.4690117 C44.9476805,27.4460373 44.9591677,27.4115758 44.9591677,27.365627 C45.0970139,26.8831655 45.3037831,26.4351655 45.5794754,26.021627 C45.6254241,25.952704 45.6483985,25.8608065 45.6483985,25.7459347 L45.6483985,25.7459347 L45.6483985,25.6080886 C45.6024498,25.2175245 45.4531164,24.8786527 45.2003985,24.5914732 C44.9476805,24.3042937 44.6834754,24.034345 44.4077831,23.781627 C44.33886,23.7356783 44.2469626,23.7356783 44.1320908,23.781627 C44.0861421,23.8046014 44.0401933,23.8390629 43.9942446,23.8850117 C43.8104498,24.1377296 43.6323985,24.4019347 43.4600908,24.677627 C43.2877831,24.9533193 43.1441933,25.2290117 43.0293216,25.504704 C42.9833728,25.5506527 42.9546549,25.6138322 42.9431677,25.6942424 C42.9316805,25.7746527 42.9144498,25.8493193 42.8914754,25.9182424 C42.8455267,26.0331142 42.8225523,26.1824476 42.8225523,26.3662424 C42.8225523,26.5500373 42.8570139,26.7338322 42.9259369,26.917627 C43.0178344,27.1014219 43.1729113,27.2852168 43.3911677,27.4690117 C43.6094241,27.6528065 43.9482959,27.7906527 44.4077831,27.8825501 Z M43.6151677,38.944704 C44.0287062,38.6690117 44.4307574,38.3243963 44.8213216,37.9108578 C45.1429626,37.5432681 45.45886,37.0665501 45.7690139,36.480704 C46.0791677,35.8948578 46.3031677,35.1769091 46.4410139,34.3268578 C46.4180395,34.211986 46.3720908,34.0971142 46.3031677,33.9822424 C46.1882959,33.7295245 45.9700395,33.5112681 45.6483985,33.3274732 C45.6024498,34.0396783 45.4760908,34.6944476 45.2693216,35.2917809 C45.0855267,35.8201911 44.8213216,36.3486014 44.4767062,36.8770117 C44.1320908,37.4054219 43.6611164,37.795986 43.0637831,38.048704 C43.1097318,37.3135245 43.1786549,36.5094219 43.2705523,35.6363963 C43.3624498,34.9012168 43.4945523,34.0511655 43.66686,33.0862424 C43.8391677,32.1213193 44.0861421,31.0989604 44.4077831,30.0191655 L44.4077831,30.0191655 L44.4077831,29.9502424 C44.4537318,29.8123963 44.4537318,29.7032681 44.4077831,29.6228578 C44.3618344,29.5424476 44.3158857,29.4907552 44.2699369,29.4677809 C43.9942446,29.2150629 43.6783472,29.0140373 43.3222446,28.864704 C42.9661421,28.7153706 42.6847062,28.6062424 42.4779369,28.5373193 C42.4549626,28.5373193 42.4319882,28.5258322 42.4090139,28.5028578 L42.4090139,28.5028578 L42.2367062,28.5028578 C42.1218344,28.5028578 42.0529113,28.5373193 42.0299369,28.6062424 C41.9839882,28.7211142 41.9839882,28.8072681 42.0299369,28.864704 C42.0758857,28.9221399 42.0758857,29.0427552 42.0299369,29.2265501 C41.9150651,29.6400886 41.777219,30.2029604 41.6163985,30.9151655 C41.455578,31.6273706 41.300501,32.3740373 41.1511677,33.1551655 C41.0018344,33.9362937 40.8869626,34.6829604 40.8065523,35.3951655 C40.7261421,36.1073706 40.7203985,36.6702424 40.7893216,37.0837809 C40.8582446,37.5202937 41.1569113,37.893627 41.6853216,38.2037809 C42.2137318,38.5139347 42.8570139,38.7609091 43.6151677,38.944704 Z M46.8890139,38.7379347 C46.9349626,38.7379347 46.9809113,38.7149604 47.02686,38.6690117 C47.0498344,38.6460373 47.0613216,38.6115758 47.0613216,38.565627 L47.0613216,38.565627 L47.0613216,38.4622424 C47.1072703,38.2784476 47.2049113,37.8993706 47.3542446,37.3250117 C47.503578,36.7506527 47.7160908,36.0958835 47.9917831,35.360704 C48.2674754,34.6255245 48.6006036,33.8673706 48.9911677,33.0862424 C49.3817318,32.3051142 49.8297318,31.6158835 50.3351677,31.0185501 L50.3351677,31.0185501 L50.0250139,32.1557809 L50.0250139,32.3625501 C50.0250139,32.5003963 50.0824498,32.5922937 50.1973216,32.6382424 C50.3581421,32.7301399 50.5821421,32.8392681 50.8693216,32.965627 C51.156501,33.091986 51.5642959,33.2011142 52.0927062,33.2930117 C52.1156805,33.315986 52.1501421,33.315986 52.1960908,33.2930117 C52.2879882,33.2470629 52.3454241,33.1666527 52.3683985,33.0517809 C52.4832703,32.5922937 52.6153728,32.0868578 52.7647062,31.5354732 C52.9140395,30.9840886 53.103578,30.4097296 53.3333216,29.8123963 L53.3333216,29.8123963 L53.3333216,29.7779347 C53.3333216,29.7549604 53.3448087,29.7434732 53.3677831,29.7434732 C53.4137318,29.5826527 53.4079882,29.4677809 53.3505523,29.3988578 C53.2931164,29.3299347 53.2529113,29.283986 53.2299369,29.2610117 L53.2299369,29.2610117 L53.1954754,29.2610117 C52.9657318,29.0542424 52.7072703,28.8819347 52.4200908,28.7440886 C52.1329113,28.6062424 51.8744498,28.4913706 51.6447062,28.3994732 C51.5987574,28.3764988 51.5413216,28.3650117 51.4723985,28.3650117 C51.3345523,28.3650117 51.2196805,28.4109604 51.1277831,28.5028578 C51.05886,28.6177296 50.9899369,28.6866527 50.9210139,28.709627 C50.9210139,28.7326014 50.9095267,28.7440886 50.8865523,28.7440886 C50.5649113,29.1116783 50.1283985,29.6688065 49.5770139,30.4154732 C49.0256292,31.1621399 48.4857318,32.0753706 47.9573216,33.1551655 C48.0721933,32.6497296 48.1985523,32.1557809 48.3363985,31.6733193 C48.4742446,31.1908578 48.6006036,30.7198835 48.7154754,30.2603963 C48.7154754,30.2374219 48.7384498,30.1570117 48.7843985,30.0191655 L48.7843985,30.0191655 L48.7843985,29.9502424 C48.8073728,29.9272681 48.81886,29.8928065 48.81886,29.8468578 C48.8418344,29.731986 48.8303472,29.6458322 48.7843985,29.5883963 C48.7384498,29.5309604 48.7039882,29.5022424 48.6810139,29.5022424 L48.6810139,29.5022424 L48.6465523,29.4677809 C48.37086,29.2150629 48.0549626,29.0140373 47.69886,28.864704 C47.3427574,28.7153706 47.0613216,28.6062424 46.8545523,28.5373193 L46.8545523,28.5373193 L46.8200908,28.5373193 C46.7971164,28.5373193 46.7741421,28.5258322 46.7511677,28.5028578 L46.7511677,28.5028578 L46.57886,28.5028578 C46.4639882,28.5028578 46.3950651,28.5373193 46.3720908,28.6062424 C46.3491164,28.7211142 46.35486,28.8015245 46.3893216,28.8474732 C46.4237831,28.8934219 46.4295267,28.9738322 46.4065523,29.088704 C46.2227574,29.8468578 46.0389626,30.6452168 45.8551677,31.4837809 C45.6713728,32.322345 45.5105523,33.1379347 45.3727062,33.9305501 C45.23486,34.7231655 45.137219,35.4755758 45.0797831,36.1877809 C45.0223472,36.899986 45.0166036,37.5088065 45.0625523,38.0142424 L45.0625523,38.0142424 L45.0625523,38.0831655 C45.0625523,38.1520886 45.0970139,38.1980373 45.1659369,38.2210117 C45.5335267,38.4048065 45.8723985,38.5254219 46.1825523,38.5828578 C46.4927062,38.6402937 46.7281933,38.691986 46.8890139,38.7379347 Z" id="Aithir" fill="#FFFFFF" fill-rule="nonzero" transform="translate(27.897778, 30.915166) rotate(-8.000000) translate(-27.897778, -30.915166) "></path>
            </g>
        </g>
    </g>
</svg>