<svg width="48" height="48" viewBox="0 0 48 48" fill="none" xmlns="http://www.w3.org/2000/svg">
<path d="M37.2171 19.6832L31.2171 22.4832L27.3337 18.8332V16.4999L31.2171 12.8499L37.2171 15.6499C37.8504 15.9499 38.5837 15.6665 38.8837 15.0499C39.1837 14.4165 38.9004 13.6832 38.2837 13.3832L31.7504 10.3332C31.1171 10.0332 30.3671 10.1665 29.8671 10.6665L26.9671 13.3332C26.6671 12.9332 26.2004 12.6665 25.6671 12.6665C24.7504 12.6665 24.0004 13.4165 24.0004 14.3332V15.9999H18.7004C17.9004 13.7499 15.6337 12.2165 13.0004 12.7832C11.0671 13.1999 9.41708 14.8665 9.06708 16.8332C8.70041 19.0332 9.83375 20.9499 11.5337 21.9665L15.8004 35.9999H10.6671V40.9999H32.3337V35.9999H26.3004L18.0171 20.6165C18.3004 20.2165 18.5337 19.7999 18.7004 19.3332H24.0004V20.9999C24.0004 21.9165 24.7504 22.6665 25.6671 22.6665C26.2004 22.6665 26.6671 22.3999 26.9671 21.9999L29.8671 24.6665C30.3671 25.1665 31.1171 25.2999 31.7504 24.9999L38.2837 21.9499C38.9171 21.6499 39.1837 20.9165 38.8837 20.2832C38.5837 19.6665 37.8504 19.3832 37.2171 19.6832V19.6832ZM14.0004 19.3332C13.0837 19.3332 12.3337 18.5832 12.3337 17.6665C12.3337 16.7499 13.0837 15.9999 14.0004 15.9999C14.9171 15.9999 15.6671 16.7499 15.6671 17.6665C15.6671 18.5832 14.9171 19.3332 14.0004 19.3332Z" fill="currentColor"/>
</svg>
