<svg width="32" height="32" viewBox="0 0 32 32" fill="none" xmlns="http://www.w3.org/2000/svg">
<path fill-rule="evenodd" clip-rule="evenodd" d="M15.9609 29.0019C21.7064 29.0019 23.4651 22.0937 24.0032 16.5315C25.4216 18.1227 26.0582 20.8423 25.9193 22.3775C25.8389 23.2181 27.8617 23.6322 28.2701 22.5503C28.534 19.5594 26.8576 13.7222 24.2127 13.0735C24.2395 12.1318 24.2405 11.3281 24.2405 10.7363C24.2405 6.65008 20.4572 3.33765 15.793 3.33765C11.1243 3.33765 7.34332 6.65008 7.34332 10.7363C7.34332 11.4397 7.35476 12.4424 7.41571 13.6204C5.06609 14.8288 3.61798 20.1103 3.86466 22.9056C4.27303 23.9875 6.29583 23.5734 6.21541 22.7328C6.08934 21.3398 6.60183 18.9716 7.75747 17.3561C8.48927 22.7527 10.4963 29.0019 15.9609 29.0019ZM9.09565 9.54341C9.09565 12.1466 12.0691 14.2582 15.7377 14.2582C19.4068 14.2582 22.3819 12.1466 22.3819 9.54341C22.3819 6.94081 19.4068 4.82922 15.7377 4.82922C12.0691 4.82922 9.09565 6.94081 9.09565 9.54341Z" fill="currentColor"/>
<path d="M13 11C13.5523 11 14 10.5523 14 10C14 9.44772 13.5523 9 13 9C12.4477 9 12 9.44772 12 10C12 10.5523 12.4477 11 13 11Z" fill="currentColor"/>
<path d="M18.6844 11C19.2367 11 19.6844 10.5523 19.6844 10C19.6844 9.44772 19.2367 9 18.6844 9C18.1321 9 17.6844 9.44772 17.6844 10C17.6844 10.5523 18.1321 11 18.6844 11Z" fill="currentColor"/>
</svg>
