<svg width="32" height="32" viewBox="0 0 32 32" fill="none" xmlns="http://www.w3.org/2000/svg">
<path d="M19.7907 6.5814C21.3256 6.5814 22.5814 5.32558 22.5814 3.7907C22.5814 2.25581 21.3256 1 19.7907 1C18.2558 1 17 2.25581 17 3.7907C17 5.32558 18.2558 6.5814 19.7907 6.5814ZM14.7674 25.9767L16.1628 19.8372L19.093 22.6279V31H21.8837V20.5349L18.9535 17.7442L19.7907 13.5581C21.6046 15.6512 24.3953 17.0465 27.4651 17.0465V14.2558C24.814 14.2558 22.5814 12.8605 21.4651 10.907L20.0698 8.67442C19.5116 7.83721 18.6744 7.27907 17.6977 7.27907C17.2791 7.27907 17 7.4186 16.5814 7.4186L9.32558 10.4884V17.0465H12.1163V12.3023L14.6279 11.3256L12.3953 22.6279L5.55814 21.2326L5 24.0233L14.7674 25.9767Z" fill="black"/>
</svg>
