<svg width="1024" height="1024" viewBox="0 0 1024 1024" fill="none" xmlns="http://www.w3.org/2000/svg">
<path fill-rule="evenodd" clip-rule="evenodd" d="M488.465 31.7033C504.413 23.145 523.587 23.145 539.535 31.7033L946.26 249.974C963.788 259.381 974.726 277.662 974.726 297.555V727.445C974.726 747.338 963.788 765.619 946.26 775.026L539.535 993.297C523.587 1001.85 504.413 1001.86 488.465 993.297L81.7398 775.026C64.2115 765.619 53.2745 747.338 53.2745 727.445V297.555C53.2745 277.662 64.2115 259.381 81.7398 249.974L488.465 31.7033ZM201 239L155 263.5L518.5 457L564.5 433L201 239ZM471 99L521.5 73L883.5 266L833.5 293L471 99ZM414.5 127.5L365.5 153L728.5 347L777 322L414.5 127.5ZM259.5 210L305.5 184.5L668.5 376.5L621.5 402.5L259.5 210ZM540 500.5V565L920.5 367V303L540 500.5ZM539 620.5L920 422.5V488.5L539 687V620.5ZM919.5 549.5L539.5 747V806.5L919.5 609V549.5ZM539.5 866.5L918.5 671.5V731.5L539.5 930V866.5ZM433 902.5L486.5 928.5V499.5L430 470.5L433 902.5ZM377 871.5L324 842V412L377 441V871.5ZM270 384L215 354.5V784L270 812.5V384ZM106.5 297L160.5 326V754.5L107 726L106.5 297Z" fill="#C6F16D"/>
</svg>
