<svg width="48" height="48" viewBox="0 0 48 48" fill="none" xmlns="http://www.w3.org/2000/svg">
<path d="M26.5003 5.1167C26.5003 5.1167 27.7337 9.53337 27.7337 13.1167C27.7337 16.55 25.4837 19.3334 22.0503 19.3334C18.6003 19.3334 16.0003 16.55 16.0003 13.1167L16.0503 12.5167C12.6837 16.5167 10.667 21.7 10.667 27.3334C10.667 34.7 16.6337 40.6667 24.0003 40.6667C31.367 40.6667 37.3337 34.7 37.3337 27.3334C37.3337 18.35 33.017 10.3334 26.5003 5.1167ZM23.517 35.6667C20.5503 35.6667 18.1503 33.3334 18.1503 30.4334C18.1503 27.7334 19.9003 25.8334 22.8337 25.2334C25.7837 24.6334 28.8337 23.2167 30.5337 20.9334C31.1837 23.0834 31.517 25.35 31.517 27.6667C31.517 32.0834 27.9337 35.6667 23.517 35.6667Z" fill="currentColor"/>
</svg>
