<svg width="32" height="32" viewBox="0 0 32 32" fill="none" xmlns="http://www.w3.org/2000/svg">
<g clip-path="url(#clip0_3_36)">
<g clip-path="url(#clip1_3_36)">
<path d="M27.0449 9.69066C24.5588 8.80207 21.1593 8.3701 16.6521 8.3701C13.4465 8.3701 10.0274 8.93034 7.19804 9.91286L5.72215 7.67666C5.62734 7.53301 5.46668 7.44653 5.29455 7.44653H0.512314C0.343871 7.44653 0.186221 7.52932 0.0905923 7.66798C-0.00503614 7.80657 -0.0264159 7.98342 0.0334201 8.1408L1.88779 13.0207C1.14046 13.8492 0.760743 14.7226 0.760743 15.6213C0.760743 16.5199 1.14046 17.3933 1.88779 18.2217L0.0334884 23.1015C-0.0263476 23.259 -0.00496784 23.4357 0.0906606 23.5743C0.186289 23.713 0.343939 23.7958 0.512382 23.7958H5.29455C5.46668 23.7958 5.62734 23.7093 5.72215 23.5657L7.19852 21.3288C9.63977 22.1767 12.5205 22.71 15.3247 22.8402V24.0411C15.3247 24.3241 15.554 24.5534 15.837 24.5534H24.1868C25.3186 24.5534 26.2394 23.6327 26.2394 22.5008V22.0336C26.5106 21.9618 26.7754 21.8843 27.0322 21.8C28.6087 21.2829 29.7777 20.5713 30.6062 19.6247C31.5311 18.5679 32 17.2209 32 15.6212C31.9999 12.8612 30.3327 10.8659 27.0449 9.69066ZM1.255 8.47112H5.0188L7.92918 12.8808H2.93069L1.255 8.47112ZM2.4852 13.8961C2.51532 13.9017 2.54599 13.9053 2.57734 13.9053H8.8811C9.06962 13.9053 9.24285 13.8018 9.33219 13.6358C9.42153 13.4698 9.41245 13.2682 9.30862 13.1108L7.7811 10.7963C10.4564 9.90234 13.6492 9.39469 16.652 9.39469C24.1621 9.39469 28.6646 10.6314 30.2868 13.1598C29.4778 12.7035 28.3909 12.3415 26.9733 12.0568C24.5101 11.562 21.134 11.3214 16.652 11.3214C14.9536 11.3214 13.2224 11.4065 11.5066 11.5743C11.2249 11.6019 11.019 11.8525 11.0466 12.134C11.0741 12.4157 11.3242 12.6218 11.6063 12.594C13.2892 12.4294 14.9868 12.3459 16.652 12.3459C27.1584 12.3459 30.2974 13.7488 30.8708 15.1088H1.8479C1.94578 14.7043 2.15849 14.2989 2.4852 13.8961ZM5.0188 22.7711H1.255L2.93069 18.3614H7.92918L5.0188 22.7711ZM25.2147 22.5008C25.2147 23.0676 24.7535 23.5288 24.1866 23.5288H16.3491V22.8699C16.4503 22.871 16.5512 22.8716 16.6521 22.8716C19.6117 22.8716 22.6478 22.7879 25.2147 22.2706V22.5008V22.5008ZM26.7127 20.8265C23.9785 21.7234 20.2615 21.847 16.652 21.847C13.6489 21.847 10.4562 21.3393 7.78157 20.4452L8.54626 19.2866C11.0823 19.6954 13.9454 19.9202 16.6521 19.9202C20.3286 19.9202 24.1227 19.848 26.9653 19.324C28.4448 19.0513 29.5624 18.6787 30.3767 18.1871C29.7206 19.3745 28.5155 20.2351 26.7127 20.8265ZM26.7795 18.3164C24.0178 18.8255 20.2799 18.8956 16.6519 18.8956C14.1599 18.8956 11.5341 18.7015 9.16682 18.3462L9.30862 18.1313C9.41252 17.9741 9.42153 17.7724 9.33226 17.6064C9.24291 17.4405 9.06962 17.3369 8.88117 17.3369H2.57734C2.54592 17.3369 2.51525 17.3406 2.48513 17.3461C2.15849 16.9434 1.94578 16.538 1.84797 16.1335H30.8955C30.5674 17.1508 29.2128 17.8679 26.7795 18.3164Z" fill="currentColor"/>
<path d="M9.57739 12.457C9.57892 12.4606 9.57859 12.4599 9.57739 12.457V12.457Z" fill="currentColor"/>
<path d="M9.57458 12.4507C9.57572 12.4534 9.57679 12.4558 9.57755 12.4577C9.57694 12.4561 9.5761 12.4543 9.57458 12.4507Z" fill="currentColor"/>
<path d="M10.3567 11.8462C10.1856 11.7159 9.9419 11.7092 9.76308 11.8283C9.56315 11.9614 9.48097 12.2288 9.57455 12.4506C9.65611 12.6437 9.84914 12.7719 10.0598 12.7666C10.2698 12.7613 10.4585 12.6249 10.5297 12.4272C10.6046 12.2189 10.5323 11.9799 10.3567 11.8462Z" fill="currentColor"/>
<path d="M9.57461 12.4507C9.57331 12.4477 9.57228 12.4451 9.57153 12.4435C9.57215 12.4448 9.5731 12.447 9.57461 12.4507Z" fill="currentColor"/>
<path d="M9.57204 12.4444C9.57054 12.4408 9.57089 12.4417 9.57204 12.4444V12.4444Z" fill="currentColor"/>
</g>
</g>
<defs>
<clipPath id="clip0_3_36">
<rect width="32" height="32" fill="white"/>
</clipPath>
<clipPath id="clip1_3_36">
<rect width="32" height="32" fill="white"/>
</clipPath>
</defs>
</svg>
