<svg width="48" height="48" viewBox="0 0 48 48" fill="none" xmlns="http://www.w3.org/2000/svg">
<path d="M24.472 6C16.4797 6 10 12.48 10 20.472C10 28.4643 19.5041 42 24.472 42C29.8361 42 38.944 28.4635 38.944 20.472C38.9443 12.4797 32.464 6 24.472 6V6ZM16.012 29.9401C13.2039 27.4919 13.2039 23.28 13.2039 23.28C13.2039 23.28 17.7399 23.0639 20.5121 25.5121C23.3201 27.9603 23.3201 32.1723 23.3201 32.1723C23.3204 32.1723 18.8203 32.388 16.012 29.9401ZM32.932 29.9401C30.124 32.3883 25.6239 32.1723 25.6239 32.1723C25.6239 32.1723 25.6239 27.9602 28.4319 25.5121C31.2399 23.0639 35.7401 23.28 35.7401 23.28C35.7401 23.28 35.7401 27.492 32.932 29.9401V29.9401Z" fill="currentColor"/>
</svg>
