<svg width="49" height="48" viewBox="0 0 49 48" fill="none" xmlns="http://www.w3.org/2000/svg">
<g>
<path d="M21.5222 6.16318C20.1931 9.33694 19.08 11.9544 19.0493 11.975C19.0186 11.9851 16.3906 10.9344 13.1966 9.63598C10.0022 8.32702 7.37472 7.28638 7.35408 7.30702C7.33344 7.32766 8.37408 9.95518 9.68304 13.1496C10.9915 16.344 12.012 18.9921 11.9707 19.0334C11.9294 19.0747 9.30192 20.1873 6.1488 21.5169C2.98512 22.8355 0.439684 23.9486 0.480964 23.9899C0.522244 24.0312 3.12912 25.1438 6.27216 26.4528C9.4152 27.7718 12.0115 28.8638 12.0322 28.8845C12.0528 28.9051 10.9915 31.5432 9.68304 34.7577C8.37456 37.9728 7.31328 40.6104 7.32336 40.631C7.344 40.6416 9.9096 39.6211 13.0214 38.3433C16.1438 37.0656 18.7814 36.0043 18.8947 35.9837C19.08 35.9323 19.3277 36.4781 21.3058 41.208C22.5216 44.1139 23.6347 46.7515 23.7686 47.0606L24.0158 47.6169L26.4374 41.8569C27.7666 38.6832 28.8898 36.0451 28.9411 36.0043C28.9824 35.9529 31.6306 36.983 34.825 38.2814C38.0194 39.5899 40.6574 40.6411 40.6675 40.6205C40.6882 40.5998 39.637 37.9517 38.3184 34.7472C37.0099 31.5321 35.9486 28.8945 35.9688 28.884C35.9894 28.8633 38.5757 27.7814 41.7187 26.4624C44.8613 25.1438 47.4686 24.0307 47.52 23.9899C47.5613 23.9486 45.0058 22.836 41.8526 21.5064C38.689 20.1873 36.072 19.0747 36.0307 19.0334C35.9894 19.0027 37.02 16.3646 38.3184 13.1702C39.6269 9.97582 40.6675 7.33822 40.6469 7.31758C40.6262 7.28686 37.9886 8.33759 34.7942 9.64655C31.6104 10.9449 28.9622 11.9856 28.931 11.9443C28.9003 11.903 27.7872 9.28558 26.4581 6.12238C25.139 2.96926 24.0264 0.383024 23.9952 0.383024C23.964 0.383024 22.8514 2.98942 21.5222 6.16318Z" fill="currentColor"/>
</g>
</svg>
