<svg width="32" height="32" viewBox="0 0 32 32" fill="none" xmlns="http://www.w3.org/2000/svg">
<path d="M16 6C9.18182 6 3.35909 10.2409 1 16.2273C3.35909 22.2136 9.18182 26.4545 16 26.4545C22.8182 26.4545 28.6409 22.2136 31 16.2273C28.6409 10.2409 22.8182 6 16 6ZM16 23.0455C12.2364 23.0455 9.18182 19.9909 9.18182 16.2273C9.18182 12.4636 12.2364 9.40909 16 9.40909C19.7636 9.40909 22.8182 12.4636 22.8182 16.2273C22.8182 19.9909 19.7636 23.0455 16 23.0455ZM16 12.1364C13.7364 12.1364 11.9091 13.9636 11.9091 16.2273C11.9091 18.4909 13.7364 20.3182 16 20.3182C18.2636 20.3182 20.0909 18.4909 20.0909 16.2273C20.0909 13.9636 18.2636 12.1364 16 12.1364Z" fill="black"/>
</svg>
