<svg width="32" height="32" viewBox="0 0 32 32" fill="none" xmlns="http://www.w3.org/2000/svg">
<path d="M21.3 17.5625C19.8375 16.9125 18.0375 16.4375 16 16.4375C13.9625 16.4375 12.1625 16.925 10.7 17.5625C9.35 18.1625 8.5 19.5125 8.5 20.9875V23H23.5V20.9875C23.5 19.5125 22.65 18.1625 21.3 17.5625ZM2.525 18.725C1.6 19.125 1 20.025 1 21.0375V23H6.625V20.9875C6.625 19.95 6.9125 18.975 7.4125 18.125C6.95 18.05 6.4875 18 6 18C4.7625 18 3.5875 18.2625 2.525 18.725ZM29.475 18.725C28.4125 18.2625 27.2375 18 26 18C25.5125 18 25.05 18.05 24.5875 18.125C25.0875 18.975 25.375 19.95 25.375 20.9875V23H31V21.0375C31 20.025 30.4 19.125 29.475 18.725ZM16 15.5C18.075 15.5 19.75 13.825 19.75 11.75C19.75 9.675 18.075 8 16 8C13.925 8 12.25 9.675 12.25 11.75C12.25 13.825 13.925 15.5 16 15.5ZM2.871 14.25L5.99988 11.1212L9.12887 14.25L5.99988 17.379L2.871 14.25ZM26 11.75L22.875 16.75H29.125L26 11.75Z" fill="black"/>
</svg>
